<svg height="518.05664" viewBox="0 0 1137 518.05664" width="1137" xmlns="http://www.w3.org/2000/svg"><path d="m175.76416 701.583-1.95117-.43946c21.75586-96.751 76.43017-184.60937 153.95117-247.3916a444.114 444.114 0 0 1 712.15484 246.21095l-1.94922.44336c-46.05378-202.20898-223.27447-343.43457-430.96978-343.43457-204.97363 0-386.33447 144.92969-431.23584 344.61132z" fill="#3f3d56" transform="translate(-31.5 -190.97168)"/><circle cx="899.63335" cy="219.90276" fill="#ff6584" r="54.31516"/><path d="m877 437.05664h2v79h-2z" fill="#3f3d56"/><path d="m928.95773 638.096c.12732 27.62433-19.30786 50.10833-19.30786 50.10833s-19.6416-22.3039-19.76892-49.92823 19.30786-50.10833 19.30786-50.10833 19.6416 22.30386 19.76892 49.92823z" fill="#6c63ff" transform="translate(-31.5 -190.97168)"/><path d="m928.95773 638.096c.12732 27.62433-19.30786 50.10833-19.30786 50.10833s-19.6416-22.3039-19.76892-49.92823 19.30786-50.10833 19.30786-50.10833 19.6416 22.30386 19.76892 49.92823z" opacity=".1" transform="translate(-31.5 -190.97168)"/><circle cx="501.02166" cy="248.742" fill="#6c63ff" opacity=".4" r="31.2479"/><circle cx="443.18972" cy="263.66637" fill="#6c63ff" opacity=".4" r="21.92017"/><circle cx="208.18972" cy="326.66637" fill="#6c63ff" opacity=".4" r="21.92017"/><circle cx="856.31222" cy="246.17134" fill="#6c63ff" opacity=".4" r="31.2479"/><path d="m88.13058 698.24412c1.694 6.26184 7.4961 10.14 7.4961 10.14s3.05572-6.27434 1.36177-12.53618-7.49609-10.14-7.49609-10.14-3.05572 6.27433-1.36178 12.53618z" fill="#3f3d56" transform="translate(-31.5 -190.97168)"/><path d="m90.61972 696.89838c4.64821 4.52485 5.216 11.4806 5.216 11.4806s-6.9685-.38049-11.61672-4.90534-5.216-11.48059-5.216-11.48059 6.9685.38048 11.61672 4.90533z" fill="#6c63ff" transform="translate(-31.5 -190.97168)"/><path d="m700.13058 698.24412c1.69395 6.26184 7.4961 10.14 7.4961 10.14s3.05572-6.27434 1.36177-12.53618-7.49609-10.14-7.49609-10.14-3.05572 6.27433-1.36178 12.53618z" fill="#3f3d56" transform="translate(-31.5 -190.97168)"/><path d="m702.61972 696.89838c4.64821 4.52485 5.216 11.4806 5.216 11.4806s-6.9685-.38049-11.61672-4.90534-5.216-11.48059-5.216-11.48059 6.9685.38048 11.61672 4.90533z" fill="#6c63ff" transform="translate(-31.5 -190.97168)"/><path d="m68.137 460.203-4.137-6.895 38.614-33.098h99.294v9.653l-35.856 38.615-41.373 8.274z" fill="#3f3d56"/><path d="m219 439.633v-21.577h-13v6.804l-4.092-4.65-33.098 33.098-5.517 5.516-6.895 27.582 12.412 30.339h63.437v-62.058z" fill="#ccc"/><path d="m64 453.30771h104.80978v63.4375h-104.80978z" fill="#f2f2f2"/><path d="m132.26427 473.30431h22.06522v19.30707h-22.06522z" fill="#3f3d56"/><path d="m103.99321 472.61477h19.30707v44.13043h-19.30707z" fill="#ccc"/><path d="m81.928 479.51v-6.895h-8.274v6.895h7.584z" fill="#3f3d56"/><path d="m81.238 485.026h-7.584v6.896h8.274v-6.896z" fill="#3f3d56"/><path d="m87.44429 472.61477h8.27446v6.89538h-8.27446z" fill="#3f3d56"/><path d="m87.44429 485.02646h8.27446v6.89538h-8.27446z" fill="#3f3d56"/><path d="m198.46 480.2v-6.896h-8.275v6.896h7.585z" fill="#3f3d56"/><path d="m197.77 485.716h-7.585v6.895h8.275v-6.895z" fill="#3f3d56"/><path d="m203.97622 473.30431h8.27446v6.89538h-8.27446z" fill="#3f3d56"/><path d="m203.97622 485.716h8.27446v6.89538h-8.27446z" fill="#3f3d56"/><path d="m467.137 460.203-4.137-6.895 38.614-33.098h99.294v9.653l-35.856 38.615-41.373 8.274z" fill="#3f3d56"/><path d="m618 439.633v-21.577h-13v6.804l-4.092-4.65-33.098 33.098-5.517 5.516-6.895 27.582 12.412 30.339h63.437v-62.058z" fill="#ccc"/><path d="m463 453.30771h104.80978v63.4375h-104.80978z" fill="#f2f2f2"/><path d="m531.26427 473.30431h22.06522v19.30707h-22.06522z" fill="#3f3d56"/><path d="m502.99321 472.61477h19.30707v44.13043h-19.30707z" fill="#ccc"/><path d="m480.928 479.51v-6.895h-8.274v6.895h7.584z" fill="#3f3d56"/><path d="m480.238 485.026h-7.584v6.896h8.274v-6.896z" fill="#3f3d56"/><path d="m486.44429 472.61477h8.27446v6.89538h-8.27446z" fill="#3f3d56"/><path d="m486.44429 485.02646h8.27446v6.89538h-8.27446z" fill="#3f3d56"/><path d="m597.46 480.2v-6.896h-8.275v6.896h7.585z" fill="#3f3d56"/><path d="m596.77 485.716h-7.585v6.895h8.275v-6.895z" fill="#3f3d56"/><path d="m602.97622 473.30431h8.27446v6.89538h-8.27446z" fill="#3f3d56"/><path d="m602.97622 485.716h8.27446v6.89538h-8.27446z" fill="#3f3d56"/><path d="m280.515 344.361-6.895-5.517 38.614-34.477h97.914v30.34l-63.437 42.752z" fill="#3f3d56"/><path d="m428 323.707v-18.651h-13v4.568l-4.852-5.257-31.719 34.477-12.411 8.275-19.245 140.603 29.023 29.023h67.45v-176.522z" fill="#ccc"/><path d="m273.61957 338.84439h104.80978v177.90082h-104.80978z" fill="#f2f2f2"/><path d="m314.30231 473.30431h19.30707v43.4409h-19.30707z" fill="#ccc"/><path d="m293.616 485.716v-6.895h-8.274v6.895h7.585z" fill="#3f3d56"/><path d="m292.927 491.232h-7.585v6.896h8.274v-6.896z" fill="#3f3d56"/><path d="m299.13247 478.82062h8.27446v6.89538h-8.27446z" fill="#3f3d56"/><path d="m299.13247 491.2323h8.27446v6.89538h-8.27446z" fill="#3f3d56"/><path d="m350.158 485.716v-6.895h-8.274v6.895h7.585z" fill="#3f3d56"/><path d="m349.469 491.232h-7.585v6.896h8.274v-6.896z" fill="#3f3d56"/><path d="m355.67459 478.82062h8.27446v6.89538h-8.27446z" fill="#3f3d56"/><path d="m355.67459 491.2323h8.27446v6.89538h-8.27446z" fill="#3f3d56"/><path d="m408.079 347.808v-6.895h-8.274v6.895h7.585z" fill="#3f3d56"/><path d="m407.39 353.325h-7.585v6.895h8.274v-6.895z" fill="#3f3d56"/><path d="m413.59579 340.91301h8.27446v6.89538h-8.27446z" fill="#3f3d56"/><path d="m413.59579 353.32469h8.27446v6.89538h-8.27446z" fill="#3f3d56"/><path d="m408.079 386.423v-6.896h-8.274v6.896h7.585z" fill="#3f3d56"/><path d="m407.39 391.939h-7.585v6.895h8.274v-6.895z" fill="#3f3d56"/><path d="m413.59579 379.52714h8.27446v6.89538h-8.27446z" fill="#3f3d56"/><path d="m413.59579 391.93882h8.27446v6.89538h-8.27446z" fill="#3f3d56"/><path d="m408.079 425.037v-6.896h-8.274v6.896h7.585z" fill="#3f3d56"/><path d="m407.39 430.553h-7.585v6.895h8.274v-6.895z" fill="#3f3d56"/><path d="m413.59579 418.14127h8.27446v6.89538h-8.27446z" fill="#3f3d56"/><path d="m413.59579 430.55295h8.27446v6.89538h-8.27446z" fill="#3f3d56"/><path d="m408.079 463.651v-6.896h-8.274v6.896h7.585z" fill="#3f3d56"/><path d="m407.39 469.167h-7.585v6.895h8.274v-6.895z" fill="#3f3d56"/><path d="m413.59579 456.7554h8.27446v6.89538h-8.27446z" fill="#3f3d56"/><path d="m413.59579 469.16708h8.27446v6.89538h-8.27446z" fill="#3f3d56"/><path d="m285.34171 347.80839h79.98641v16.54891h-79.98641z" fill="#3f3d56"/><path d="m285.34171 380.90621h79.98641v16.54891h-79.98641z" fill="#3f3d56"/><path d="m285.34171 414.00404h79.98641v16.54891h-79.98641z" fill="#3f3d56"/><path d="m285.34171 447.10187h79.98641v16.54891h-79.98641z" fill="#3f3d56"/><path d="m683.515 344.361-6.895-5.517 38.614-34.477h97.914v30.34l-63.437 42.752z" fill="#3f3d56"/><path d="m831 323.707v-18.651h-13v4.568l-4.852-5.257-31.719 34.477-12.411 8.275-19.245 140.603 29.023 29.023h67.45v-176.522z" fill="#ccc"/><path d="m676.61957 338.84439h104.80978v177.90082h-104.80978z" fill="#f2f2f2"/><path d="m717.30231 473.30431h19.30707v43.4409h-19.30707z" fill="#ccc"/><path d="m696.616 485.716v-6.895h-8.274v6.895h7.585z" fill="#3f3d56"/><path d="m695.927 491.232h-7.585v6.896h8.274v-6.896z" fill="#3f3d56"/><path d="m702.13247 478.82062h8.27446v6.89538h-8.27446z" fill="#3f3d56"/><path d="m702.13247 491.2323h8.27446v6.89538h-8.27446z" fill="#3f3d56"/><path d="m753.158 485.716v-6.895h-8.274v6.895h7.585z" fill="#3f3d56"/><path d="m752.469 491.232h-7.585v6.896h8.274v-6.896z" fill="#3f3d56"/><path d="m758.67459 478.82062h8.27446v6.89538h-8.27446z" fill="#3f3d56"/><path d="m758.67459 491.2323h8.27446v6.89538h-8.27446z" fill="#3f3d56"/><path d="m811.079 347.808v-6.895h-8.274v6.895h7.585z" fill="#3f3d56"/><path d="m810.39 353.325h-7.585v6.895h8.274v-6.895z" fill="#3f3d56"/><path d="m816.59579 340.91301h8.27446v6.89538h-8.27446z" fill="#3f3d56"/><path d="m816.59579 353.32469h8.27446v6.89538h-8.27446z" fill="#3f3d56"/><path d="m811.079 386.423v-6.896h-8.274v6.896h7.585z" fill="#3f3d56"/><path d="m810.39 391.939h-7.585v6.895h8.274v-6.895z" fill="#3f3d56"/><path d="m816.59579 379.52714h8.27446v6.89538h-8.27446z" fill="#3f3d56"/><path d="m816.59579 391.93882h8.27446v6.89538h-8.27446z" fill="#3f3d56"/><path d="m811.079 425.037v-6.896h-8.274v6.896h7.585z" fill="#3f3d56"/><path d="m810.39 430.553h-7.585v6.895h8.274v-6.895z" fill="#3f3d56"/><path d="m816.59579 418.14127h8.27446v6.89538h-8.27446z" fill="#3f3d56"/><path d="m816.59579 430.55295h8.27446v6.89538h-8.27446z" fill="#3f3d56"/><path d="m811.079 463.651v-6.896h-8.274v6.896h7.585z" fill="#3f3d56"/><path d="m810.39 469.167h-7.585v6.895h8.274v-6.895z" fill="#3f3d56"/><path d="m816.59579 456.7554h8.27446v6.89538h-8.27446z" fill="#3f3d56"/><path d="m816.59579 469.16708h8.27446v6.89538h-8.27446z" fill="#3f3d56"/><path d="m688.34171 347.80839h79.98641v16.54891h-79.98641z" fill="#3f3d56"/><path d="m688.34171 380.90621h79.98641v16.54891h-79.98641z" fill="#3f3d56"/><path d="m688.34171 414.00404h79.98641v16.54891h-79.98641z" fill="#3f3d56"/><path d="m688.34171 447.10187h79.98641v16.54891h-79.98641z" fill="#3f3d56"/><path d="m904.515 344.361-6.895-5.517 38.614-34.477h97.914v30.34l-63.437 42.752z" fill="#3f3d56"/><path d="m1052 323.707v-18.651h-13v4.568l-4.852-5.257-31.719 34.477-12.411 8.275-19.245 140.603 29.023 29.023h67.45v-176.522z" fill="#ccc"/><path d="m897.61957 338.84439h104.80978v177.90082h-104.80978z" fill="#f2f2f2"/><path d="m938.30231 473.30431h19.30707v43.4409h-19.30707z" fill="#ccc"/><g fill="#3f3d56"><path d="m917.616 485.716v-6.895h-8.274v6.895h7.585z"/><path d="m916.927 491.232h-7.585v6.896h8.274v-6.896z"/><path d="m923.13247 478.82062h8.27446v6.89538h-8.27446z"/><path d="m923.13247 491.2323h8.27446v6.89538h-8.27446z"/><path d="m974.158 485.716v-6.895h-8.274v6.895h7.585z"/><path d="m973.469 491.232h-7.585v6.896h8.274v-6.896z"/><path d="m979.67459 478.82062h8.27446v6.89538h-8.27446z"/><path d="m979.67459 491.2323h8.27446v6.89538h-8.27446z"/><path d="m1032.079 347.808v-6.895h-8.274v6.895h7.585z"/><path d="m1031.39 353.325h-7.585v6.895h8.274v-6.895z"/><path d="m1037.59579 340.91301h8.27446v6.89538h-8.27446z"/><path d="m1037.59579 353.32469h8.27446v6.89538h-8.27446z"/><path d="m1032.079 386.423v-6.896h-8.274v6.896h7.585z"/><path d="m1031.39 391.939h-7.585v6.895h8.274v-6.895z"/><path d="m1037.59579 379.52714h8.27446v6.89538h-8.27446z"/><path d="m1037.59579 391.93882h8.27446v6.89538h-8.27446z"/><path d="m1032.079 425.037v-6.896h-8.274v6.896h7.585z"/><path d="m1031.39 430.553h-7.585v6.895h8.274v-6.895z"/><path d="m1037.59579 418.14127h8.27446v6.89538h-8.27446z"/><path d="m1037.59579 430.55295h8.27446v6.89538h-8.27446z"/><path d="m1032.079 463.651v-6.896h-8.274v6.896h7.585z"/><path d="m1031.39 469.167h-7.585v6.895h8.274v-6.895z"/><path d="m1037.59579 456.7554h8.27446v6.89538h-8.27446z"/><path d="m1037.59579 469.16708h8.27446v6.89538h-8.27446z"/><path d="m909.34171 347.80839h79.98641v16.54891h-79.98641z"/><path d="m909.34171 380.90621h79.98641v16.54891h-79.98641z"/><path d="m909.34171 414.00404h79.98641v16.54891h-79.98641z"/><path d="m909.34171 447.10187h79.98641v16.54891h-79.98641z"/><path d="m0 516.05664h1137v2h-1137z"/><path d="m252 437.05664h2v79h-2z"/></g><path d="m303.95773 638.096c.12732 27.62433-19.30786 50.10833-19.30786 50.10833s-19.6416-22.3039-19.76892-49.92823 19.30786-50.10833 19.30786-50.10833 19.6416 22.30386 19.76892 49.92823z" fill="#6c63ff" transform="translate(-31.5 -190.97168)"/><path d="m452 437.05664h2v79h-2z" fill="#3f3d56"/><path d="m503.95773 638.096c.12732 27.62433-19.30786 50.10833-19.30786 50.10833s-19.6416-22.3039-19.76892-49.92823 19.30786-50.10833 19.30786-50.10833 19.6416 22.30386 19.76892 49.92823z" fill="#6c63ff" transform="translate(-31.5 -190.97168)"/><path d="m851 437.05664h2v79h-2z" fill="#3f3d56"/><path d="m902.95773 638.096c.12732 27.62433-19.30786 50.10833-19.30786 50.10833s-19.6416-22.3039-19.76892-49.92823 19.30786-50.10833 19.30786-50.10833 19.6416 22.30386 19.76892 49.92823z" fill="#6c63ff" transform="translate(-31.5 -190.97168)"/><ellipse cx="587.5" cy="163.5" fill="#6c63ff" rx="38" ry="8.55"/><path d="m662 234.97168c0 24.30053-44 93-44 93s-44-68.69947-44-93a44 44 0 0 1 88 0z" fill="#6c63ff" transform="translate(-31.5 -190.97168)"/><circle cx="586.5" cy="44" fill="#f2f2f2" r="25"/></svg>